<?xml version="1.0" encoding="utf-8"?>
<!-- Generator: Adobe Illustrator 24.3.0, SVG Export Plug-In . SVG Version: 6.00 Build 0)  -->
<svg version="1.1" baseProfile="tiny" id="Layer_1" xmlns="http://www.w3.org/2000/svg" xmlns:xlink="http://www.w3.org/1999/xlink"
	 x="0px" y="0px" viewBox="0 0 1920 1080" overflow="visible" xml:space="preserve">
<g>
	<g>
		<path fill="#FEFEFE" d="M960,1014.9c-283.1,0-566.3,0-849.4,0.1c-3.7,0-4.6-0.8-4.6-4.6c0.1-313.6,0.1-627.2,0-940.8
			c0-3.7,0.8-4.6,4.6-4.6c566.3,0.1,1132.5,0.1,1698.8,0c3.7,0,4.6,0.8,4.6,4.6c-0.1,313.6-0.1,627.2,0,940.8c0,3.7-0.8,4.6-4.6,4.6
			C1526.3,1014.9,1243.1,1014.9,960,1014.9z"/>
		<path fill="#800D18" d="M845.3,889.7c-2.3-8.3-5.9-16.2-10.1-23.7c-6.5-11.7-13.3-23.1-21.7-33.6c-6.1-7.6-12.1-15.3-18.7-22.5
			c-5.5-6-10.9-12.1-16.9-17.6c-14.4-13.3-29.2-26.2-44.8-38.3c-16.6-12.8-33.9-24.6-51.4-36.1c-14.8-9.6-30-18.6-45.4-27.2
			c-17.2-9.6-34.5-19-52.2-27.5c-10.4-5-21-9.6-31.6-14.4c-0.7-0.3-1.8-1.5-2.5-0.3c-0.3,0.4,0.3,1.6,0.8,2.2c2,2.6,4,5.3,6.2,7.7
			c14.1,15.4,29.9,28.9,46.4,41.7c4.2,3.2,8.7,6.1,12.3,10c1.8,2,3.3,3.9,1.7,6.6c-1.5,2.6-4.2,2.6-6.7,2.1
			c-11.9-2.2-23.4-5.7-34.5-10.5c-21.3-9.2-41.6-20.2-61-32.8c-5.7-3.7-11.4-7.3-17-11c-0.7-0.5-1.5-1.2-2.2-0.6
			c-1.1,1,0,1.7,0.7,2.4c6.7,6.1,13.3,12.5,20.3,18.3c11.1,9.1,22.4,17.9,33.7,26.8c2.5,1.9,5.1,3.6,7.5,5.6c1.9,1.5,3.5,3.3,2.5,6
			c-0.9,2.6-3.1,3.1-5.6,3.1c-21.6,0.7-41.9-4.5-61.7-12.6c-20.5-8.4-38.8-20.6-55.7-34.7c-10.8-9-21.2-18.6-30.1-29.7
			c-2.3-2.8-5.4-5-7.2-8.2c-0.2-0.3-0.8-0.4-1.2-0.7c-0.1,0.5-0.3,0.9-0.3,1.4c0.1,1,0.3,2,0.6,2.9c4.8,15.1,10.4,30,17.1,44.4
			c7.8,16.9,16.7,33,26.4,48.8c1.6,2.6,1.7,5.2-0.7,7.2c-2.1,1.8-4.6,1.6-6.9-0.2c-23.4-17.8-42.9-39.2-58.1-64.5
			c-11.9-19.8-21.7-40.5-28.4-62.6c-1-3.3-2.2-6.6-2.9-10c-0.5-2.1-1-2.2-2.4-0.9c-2.9,2.7-6,5.2-8.9,7.9
			c-13.1,12.6-26.9,24.4-41.4,35.5c-12.9,9.9-26.2,19-40.7,26.2c-7,3.5-14.5,5.4-22.2,6.6c-3.2,0.5-5.6-0.8-7-3.7
			c-1.4-2.8,0.4-4.8,2.3-6.5c6-5.2,12.2-10.2,17.8-15.8c18.8-18.7,34.1-39.9,45.2-64.1c1-2.2,3.1-5.1,1.6-6.7c-1-1.1-3.7,1.8-5.5,3
			c-18.9,11.9-38.1,23.1-58.4,32.6c-16.2,7.6-32.9,14-50.4,17.7c-13.8,2.9-27.8,4.1-41.8,0.4c-3.7-1-7.1-2.5-10.3-4.7
			c-2-1.4-3.4-3.2-3.1-5.9c0.3-2.8,2.1-3.7,4.6-4.5c21.8-7,41.5-18,59.3-32.2c15.8-12.6,28.3-28.2,38.7-45.4
			c9.1-15.1,16.1-31.1,20.7-48.1c0.9-3.4,0.6-4.3-3-5.4c-23-6.7-45.7-14.6-67-25.8c-11.7-6.2-22.9-13.2-32-23.1
			c-2.7-3-4.9-6.2-6.6-9.9c-1.7-3.7-1-5.9,2.7-7.7c16.3-8.4,32.5-17,48.4-26.3c16.8-9.8,33.7-19.5,50-30.2
			c21.6-14.3,44.1-26.6,69-34.2c9.8-3,19.7-5.7,29.5-8.4c2.3-0.6,4-1.8,5.4-3.9c13.6-22,30.7-41.1,49.7-58.5
			c12.7-11.6,26.8-21.4,41.8-29.8c12.6-7.1,25.6-13.1,39.3-17.7c13.1-4.4,26.6-7.5,40.4-9.2c14.2-1.8,28.1-5.6,41.9-9.4
			c18.6-5.2,37.2-10.6,55.4-17.2c7-2.5,14-4.7,21.4-6.1c6.2-1.2,12-3.7,17.7-6.4c22.6-10.7,43.9-23.6,64.8-37.3
			c21.9-14.4,43.3-29.4,64.4-44.9c4.1-3,9.2-1.8,13.6-1.2c11.5,1.6,22.6,4.8,32.5,11.2c11.4,7.3,20.4,16.9,26.8,28.7
			c7,12.9,10.6,26.9,12.9,41.3c2.5,15.9,2.4,31.8,1.7,47.7c-0.6,14.1-2.1,28.2-5.5,42.1c-0.6,2.5-1,5.2,0,7.9c3,8,4.3,16.3,3.7,24.8
			c-0.5,7.8,1,15.6-0.9,23.3c-0.3,1.4,0.7,2.1,1.4,3c8.5,11.5,12.6,24.3,12.7,38.8c0.1,15.5-2.5,30.2-8.4,44.5
			c-1.5,3.7-3.6,6.7-7.1,9.2c-14.1,9.8-27.4,20.5-40.3,31.9c-17.7,15.6-32.5,33.4-44.9,53.3c-9.5,15.2-15.9,31.8-19.5,49.5
			c-2.5,12.3-2.8,24.8-1.7,37.1c1.2,13.8,5,27.2,10.3,40.1c8.1,19.5,19,37.3,32.7,53.4c7.4,8.7,14.9,17.3,23.7,24.6
			c2.5,2.1,4.1,4.7,2.3,7.8c-1.8,3.3-4.9,2.7-8,2c-9-2.1-17-6.5-25.2-10.3c-14.1-6.6-27.8-14-41.4-21.5c-0.8-0.4-1.8-1.5-2.6-0.6
			c-1.2,1.3,0.4,2,1.1,2.8c13.4,15.5,28.6,28.9,44.1,42.3c15.9,13.7,32.9,25.9,49.1,39.1c15.2,12.3,29.7,25.6,43,39.9
			c16.3,17.5,31.2,36.4,43.6,56.9c12.4,20.4,22.7,41.8,28.3,65.2c0.3,1.1,0.5,2.3,0.6,3.4c0.2,2.5-0.2,4.8-2.8,5.8
			c-2.6,1.1-4.6-0.3-6.1-2.2c-4.3-5.4-8.4-11-12.9-16.3c-8-9.7-16.7-18.8-26.3-27.1c-6.7-5.7-13.7-10.9-21.4-15
			c-1-0.5-2.1-1.7-3.2-1c-1.3,1-0.2,2.4,0.2,3.6c4.2,15.1,7.1,30.4,7.7,46.2c0.8,19.8-1.9,38.7-10,56.8c-1.9,4.2-4.4,8.1-7,12
			c-2.5,3.8-7.4,3.4-9.1-0.9c-6.1-15.5-17.8-26.6-29.6-37.5c-13.2-12.2-27.3-23.4-41.7-34.2c-19.5-14.7-39.4-28.8-59.5-42.6
			c-31.8-21.9-64.3-42.6-97.1-63c-24.5-15.3-49.1-30.3-74-45c-2.2-1.3-4.1-3.2-3.2-6.1c0.8-3,3.2-3.4,5.9-3.4
			c7.6,0.1,14.6,2.6,21.7,4.8c17.6,5.4,34.4,12.6,51.2,20c22.6,10,44.6,21.1,66.5,32.5c23.9,12.4,47.5,25.4,70.9,38.7
			c22,12.4,43.8,25.1,65.6,37.9c0.7,0.4,1.5,0.7,2.3,1C844.9,890.6,845.7,890.6,845.3,889.7z"/>
		<path fill="#0D0909" d="M1040.4,393.3c-24.9,22.7-51.9,42.7-79,62.7c-3,2.2-5.9,2.6-9.3,1.8c-26.3-5.9-52.4-12.2-78.5-19
			c-6.8-1.8-7.7-4.7-2.9-9.9c15-16.3,31.7-30.9,47.2-46.8c12.7-13,25-26.3,33.7-42.5c2.5-4.7,4.8-9.6,6.2-14.7c1-3.6,3-5.1,6.8-5.1
			c15.5,0.2,31,0.2,46.5,0.4c5.8,0.1,7.4,2.2,5.8,8c-4.5,16.6-12.7,31.4-22.5,45.4c-3.7,5.3-7.9,10.3-11.8,15.5
			c-0.7,0.9-2.6,1.9-1.3,3.2c0.9,0.9,2-0.7,2.8-1.3c10.7-7.7,20.9-15.9,31.1-24.2c15.2-12.4,28.9-26.1,40-42.3
			c1.8-2.7,4.2-3.4,7.2-3.4c12,0.1,24,0.1,36,0.2c5.9,0.1,7.4,1.5,7.3,7.5c-0.1,25-4.1,49.3-11.6,73.2c-0.6,2-2.4,5.5-1.3,5.8
			c2.5,0.8,3.1-2.6,4.3-4.3c15.6-22,31.1-44.1,42.1-68.8c0.8-1.8,1.7-3.6,2.4-5.5c3-7.2,3-7.2,10.9-7.2c12.8,0,25.7,0.1,38.5,0.2
			c7.1,0.1,8.6,2.3,6,8.9c-12.5,32.1-30.4,61.3-49.4,89.9c-13.2,20-27.2,39.4-40.9,59.1c-2.4,3.5-5.2,4.6-9.3,4
			c-26.8-4-53.6-8.1-80.3-13c-5.5-1-6.8-3.1-4.5-8.5c7-16.9,14.2-33.7,21.3-50.6c2.4-5.8,5.3-11.5,7.1-17.5
			C1041.7,393.4,1041,393.4,1040.4,393.3z"/>
		<path fill="#0D0909" d="M1659.5,242c0,23.3,0,46.6,0,69.9c0,6.6-1.7,7.7-8.2,6.5c-14.2-2.6-28.5-5-42.7-7.4
			c-2.5-0.4-4.1-1.6-5.2-3.9c-10.7-22.6-21.2-45.3-31.4-68.2c-3.4-7.8-6.8-15.5-9.7-23.5c-0.3-0.7-0.1-2.4-1.5-2.1
			c-1.3,0.3-0.9,1.7-0.8,2.5c1.6,7.3,0.4,14.8,1.7,22.1c0.4,2.3,0.4,4.7,0,7c-1.4,8.2,0.3,16.6-0.9,24.8c-1.3,8.5-0.4,16.8-0.7,25.2
			c-0.3,7.3-2.2,8.5-9.6,7.4c-9.8-1.4-19.7-2.3-29.5-3.3c-3.4-0.3-6.9-1-10.3-1.3c-3.3-0.3-4.6-3-4.8-6.4
			c-0.4-5.7,1.2-11.2,0.9-16.8c-0.1-2,0.2-4,0.1-6c-0.3-16.6,0.9-33.2,1.3-49.8c0.2-10.9-0.1-21.9,0.9-32.8c1-11.3,0.1-22.6,1-33.8
			c0.9-11,0.6-21.9,0.9-32.8c0.1-2.3,0.4-4.6,1-6.8c0.6-2.6,2.6-3.3,5.1-2.8c12.5,2.6,24.4,7.3,36.8,10.5
			c10.4,2.7,16.1,8.4,19.7,18.5c6.3,17.7,13.9,35,21.6,52.2c4.9,11,9.8,22,14.1,33.2c0.2,0.6,0.4,1.5,1.2,1.3c1.1-0.3,0.5-1.4,0.5-2
			c0.2-6-1-11.8-1.1-17.8c-0.2-18.7,1.3-37.3,1.1-55.9c0-4.6,1.9-6.4,8.1-3.8c8.4,3.4,16.4,7.6,24.6,11.6c4.2,2.1,8.2,4.6,12.5,6.5
			c3.8,1.7,4.9,4.3,4.8,8.1c-0.2,13.5-0.4,27-0.5,40.4c-0.1,9.8,0,19.6,0,29.5C1660.1,242,1659.8,242,1659.5,242z"/>
		<path fill="#0D0909" d="M1630.8,319.8c19,0,38,0.1,56.9-0.1c4.1,0,6.8,1.1,8.8,4.9c3.6,7,8.5,13.1,13.9,18.8
			c1.8,1.9,3.8,3.7,2.6,6.9c-1.2,3.1-3.7,2.8-6.2,2.9c-20.9,0.9-41.9,1.8-62.8,2.8c-1.1,0-2.6-0.6-3.2,0.6c-0.7,1.2,0.8,2,1.4,2.9
			c8.7,12.3,8.7,12.2,23.7,10.9c17.4-1.5,34.8-2.8,52.2-4.2c2.6-0.2,4.9,0.5,6.9,2.2c8.3,6.7,16.9,12.9,25.7,18.9
			c2.1,1.5,4.9,2.8,4,6.2c-0.9,3.2-3.6,3.4-6.3,3.7c-20.1,2.6-40.2,5.3-60.4,8c-1.1,0.1-2.7-0.1-3.2,1c-0.5,1.2,1.1,1.9,1.8,2.7
			c11.6,11.3,23.2,22.5,34.8,33.7c1.3,1.3,2.7,2.5,3.9,3.9c3.8,4.2,3,7.2-2.5,8.5c-8.7,2.1-17.5,4-26.3,5.8
			c-12.5,2.6-25.1,4.9-37.6,7.6c-3.2,0.7-5.5,0-7.4-2.5c-23.5-31.6-48.6-62.1-68.4-96.4c-7.2-12.4-13.3-25.3-17.5-39.1
			c-2.2-7.2-0.9-9.2,6.6-9.2c19.5,0,39,0,58.4,0C1630.8,320.7,1630.8,320.3,1630.8,319.8z"/>
		<path fill="#0D0909" d="M1344.5,288.2c-7.2,0-14.3,0-21.5,0c-7.3,0-8.7-1.8-6.7-8.7c9-30.5,17.9-61,27.2-91.4
			c9.7-31.8,19.7-63.6,29.6-95.3c2-6.4,2.9-6.8,9.7-6.3c18.4,1.5,36.8,3.4,55.1,6.1c3.9,0.6,5.8,2.3,6.8,6
			c16.9,63.1,33.9,126.2,50.9,189.3c1.6,5.8-0.5,8.1-6.5,7.6c-15.4-1.2-30.8-2.5-46.3-3.5c-4-0.3-6-2-6.8-5.8
			c-2-9.9-4.2-19.9-6-29.8c-0.7-3.6-1.8-5.3-5.9-5.4c-12.1-0.4-24.2-1.2-36.4-2c-3.3-0.2-5.2,0.3-6,4.3c-1.9,9.9-4.6,19.8-7,29.6
			c-1.2,4.9-2.5,5.9-7.6,5.9c-7.5,0-15,0-22.4,0C1344.5,288.7,1344.5,288.5,1344.5,288.2z"/>
		<path fill="#0D0909" d="M1441,322c7,0,14-0.1,21,0c6.3,0.1,7,1,7.9,6.4c5.1,32.1,15.3,62.7,26.2,93.2c1.7,4.8,3.6,9.5,5,14.4
			c0.8,2.7,2.1,3.2,4.6,3c6.1-0.6,12.2-0.5,18.2-1.3c12-1.7,24-2.1,36-3.6c8.7-1.1,17.4-1.5,26.1-3c3.6-0.6,5.9,1.2,7.6,4
			c6.8,11.1,13.7,22.2,20.4,33.4c2.6,4.3,1.1,7.6-4,8.4c-13.3,2.1-26.6,4.1-39.9,6c-14.6,2.1-29.2,4.1-43.9,5.9
			c-10.6,1.3-21.4,2.1-32,3.1c-14.6,1.4-29.3,2.6-43.9,4c-4,0.4-6.4-1.3-7.4-5.5c-4.7-20.9-9.4-41.7-13.9-62.6
			c-5.7-26.6-11-53.3-14.9-80.2c-0.8-5.9-1.3-11.8-2.1-17.7c-0.7-5.5,1.3-7.7,6.9-7.8c7.3-0.1,14.7,0,22,0
			C1441,322.1,1441,322.1,1441,322z"/>
		<path fill="#0D0909" d="M1287.4,502.2c-23.8-0.3-46.8-4.4-67.2-17.5c-24-15.4-37.4-37.6-34.8-66.3c3.8-41.5,29.1-85.1,83.2-95.4
			c21.1-4,42-3.7,62.8,1.9c32.5,8.9,52.4,30,60.3,62.7c6.3,26.2,3.6,50.9-12.3,73.3c-14,19.6-33.5,31-56.4,36.9
			c-4.8,1.3-9.7,2.2-14.7,3C1301.4,502,1294.4,502.4,1287.4,502.2z"/>
		<path fill="#0D0909" d="M1312.5,186.5c-0.1,16.4-2.4,32.5-8.1,48c-13.5,36.9-45.5,59.2-85.4,59.8c-16.6,0.3-32.5-2.5-47.2-10.5
			c-21.7-11.9-34-30.8-39.2-54.5c-7.7-35-3.5-68.3,17.1-98.3c22.7-33.2,67.8-49.7,105.2-38.9c27.6,8,43.4,27.6,51.9,54.1
			C1311,159.2,1312.5,172.7,1312.5,186.5z"/>
		<path fill="#0D0909" d="M992,241.7c0-23.5,0.1-47-0.1-70.4c0-3.2,0.9-5.2,3.7-6.7c13-7,26.2-13.8,39.8-19.6
			c5.6-2.4,8.3-0.9,8.8,4.9c0.4,4.2,0.6,8.5-0.2,12.8c-0.8,4.9,1.2,9.7,1,14.8c-0.4,8.7,0.3,17.5,0.2,26.2
			c-0.1,7.7,0.8,15.5,0.9,23.3c0.2,11.9,0.8,23.8,0.9,35.7c0,3.3,0.9,3.9,4,3.2c15.4-3.4,30.8-6.9,46.5-8.9
			c4.2-0.5,8.2-2.1,12.5-1.9c3.4,0.1,5.2,1.8,4.9,4.8c-0.9,12,1.9,23.8,1,35.7c-0.3,3.8-1.4,5.3-5.1,5.8
			c-14.4,1.8-28.7,3.7-43.1,5.9c-22.3,3.3-44.4,7.1-66.5,11.4c-6.7,1.3-8,0.5-8-6.5c-0.1-23.5,0-47,0-70.4
			C993,241.7,992.5,241.7,992,241.7z"/>
		<path d="M853,899.9c-0.6-7.4-4.3-13.8-6.9-20.5c-7.3-18.2-17.8-34.7-29.7-50.2c-6-7.9-12.5-15.4-19.2-22.8
			c-5.7-6.2-11.4-12.5-17.7-18.3c-14.2-13.1-28.8-25.8-44.1-37.6c-16.6-12.8-33.9-24.7-51.5-36.1c-18-11.7-36.6-22.5-55.5-32.7
			c-14.1-7.7-28.2-15.4-42.8-22.3c-13.2-6.2-26.2-12.6-39.7-18.1c-3.5-1.4-3,0.5-2.9,2.5c0.2,3.8,2.3,7,4.5,9.8
			c8.8,11.3,19.1,21.1,29.8,30.5c10.9,9.6,22.3,18.6,33.8,27.5c1,0.8,2.1,1.6,2.4,3.3c-12.8-1.8-24.8-5.8-36.4-10.8
			c-20.8-9-40.6-20-59.8-32.1c-13.7-8.6-26.9-17.9-40.1-27.2c-0.5-0.4-1.3-1.1-1.6-0.9c-0.8,0.4-0.6,1.5-0.4,2.2
			c1.1,3.4,3.3,6.2,5.4,8.8c8.4,10.8,18.8,19.6,29,28.6c9.7,8.5,19.8,16.5,29.9,24.5c4.9,3.9,10,7.5,15,11.3c0.8,0.6,2,1.2,1.8,2.2
			c-0.3,1.3-1.6,0.6-2.5,0.7c-17.4,0.5-34-3.5-50.3-9.2c-16-5.6-30.7-13.8-44.7-23.4c-16.6-11.4-31.5-24.8-45.2-39.5
			c-6.7-7.2-12.7-15.2-19-22.9c-1-1.2-1.3-3.7-3.2-2.9c-0.9,0.3-0.3,3,0,4.7c2.2,10.8,5.3,21.5,9,31.9c7.8,21.8,17.6,42.8,29.3,62.8
			c3.2,5.4,5.9,11.1,9.5,16.3c0.4,0.6,0.9,1.1,0.4,1.7c-0.8,0.9-1.5,0-2.1-0.4c-11.5-9.2-22.6-18.8-32.3-30
			c-10.7-12.3-20.1-25.4-28.1-39.5c-10.4-18.5-19.1-37.8-25-58.2c-1.3-4.6-2.6-9.2-3.8-13.8c-0.4-1.8-0.8-2.5-2.3-0.8
			c-4.5,5.1-10,9.2-14.9,13.9c-12.6,12-25.7,23.3-39.5,33.9c-12.2,9.4-24.8,18.1-38.5,25.2c-7.1,3.7-14.6,5.9-22.5,7.2
			c-1,0.2-2.2,0.3-2.7-0.8c-0.8-1.7,0.9-2.4,1.8-3.1c6.4-5.1,12.4-10.5,18.1-16.2c18.9-18.9,34.3-40.3,45.2-64.8
			c2.3-5.1,4.4-10.3,5.5-15.9c0.2-0.8,0.9-1.8,0.2-2.3c-0.8-0.6-1.8,0.2-2.6,0.7c-9.3,6.5-18.9,12.7-28.7,18.6
			c-25.5,15.2-51.7,28.9-80.3,37.3c-12.7,3.7-25.7,6.3-39.1,5.5c-6.9-0.4-13.7-1.6-19.8-5.3c-1.1-0.7-2.9-0.9-2.8-2.5
			c0-1.8,2-1.5,3.1-1.8c17.9-5.9,34.3-14.6,49.7-25.4c20.1-14.1,36.1-32.1,48.7-52.9c10.2-16.7,17.9-34.6,22.6-53.7
			c0.9-3.5-0.1-4.8-3.3-5.7c-16.6-4.5-32.9-9.9-48.7-16.6c-18.8-8-37.2-16.7-51.7-31.6c-0.5-0.5-1-0.9-1.4-1.4
			c-6.7-7.6-6.4-8.8,2.4-13.4c24.5-12.8,48.3-26.7,72.1-40.8c18.6-11.1,36.1-24,55.6-33.5c15.2-7.4,31.2-12.6,47.4-17.2
			c6-1.7,12-3.4,18.1-4.9c1.4-0.3,1.9-1.1,2.5-2.1c13.6-22.4,30.6-42.1,49.8-59.7c12.8-11.7,27.1-21.7,42.3-30.1
			c12.4-6.9,25.3-12.9,38.9-17.4c12.8-4.3,25.9-7.2,39.4-8.9c14-1.8,27.8-5.4,41.4-9.2c18.8-5.2,37.4-10.8,55.8-17.2
			c6.7-2.3,13.3-4.8,20.4-5.9c6.5-1,12.6-3.8,18.6-6.6c23.5-11.1,45.7-24.6,67.4-38.9c21.2-14,42-28.6,62.5-43.7
			c3.1-2.3,6.5-1.7,9.6-1.3c30.6,3.9,51.9,20,63,49c4.9,12.7,7.4,25.9,8.7,39.4c1.2,11.8,1.1,23.6,0.6,35.3
			c-0.7,15.4-2.7,30.8-6.3,45.9c-0.5,2-0.2,3.5,0.4,5.2c5.6,15.4,4.7,31.2,3.2,47.1c-0.2,2.2-0.1,4,1.5,6
			c8.3,10.6,12.3,22.6,12.6,36.3c0.3,15.4-2.7,29.9-8.4,44c-1.1,2.8-2.8,5-5.4,6.8c-13.9,9.8-27.2,20.3-40,31.6
			c-18,16-33.4,34-46.1,54.3c-9.8,15.7-16.5,32.6-20.3,50.7c-1.8,8.4-2.7,17.1-2.6,25.5c0.1,12.1,1.5,24.3,4.9,36.1
			c6.6,22.8,17.2,43.6,31.4,62.5c7.4,9.8,15.5,19,23.9,27.8c2.7,2.9,6.4,4.8,8.9,7.9c0.6,0.8,1.8,1.5,1.1,2.5
			c-0.6,0.9-1.7,0.2-2.7,0c-5-0.7-9.4-3.1-13.9-5.1c-21.4-9.5-41.9-20.6-62.3-32c-2-1.1-4.9-3.5-6-2.5c-1.7,1.7,1,4.1,1.9,6.1
			c2.8,5.9,7.2,10.8,11.6,15.4c7.7,8,15.3,16.1,23.8,23.4c6.2,5.3,12.2,10.7,18.3,16.1c12.1,10.6,24.7,20.4,37.5,30
			c9.9,7.5,19.3,15.5,28.6,23.8c7.2,6.4,14.2,13,20.8,20c18.6,19.6,35.1,40.8,48.9,64.1c9.3,15.7,16.8,32.2,22.6,49.5
			c1.3,3.9,2.3,7.9,3.3,11.9c0.2,0.7,0.5,1.8-0.5,2c-0.4,0.1-1.2-0.5-1.6-1c-5.5-7.7-11.5-14.9-17.7-22
			c-6.7-7.6-13.9-14.7-21.5-21.4c-8.4-7.4-17.5-13.6-27.6-18.3c-2.4-1.1-5.2-3.3-7.2-1.9c-1.6,1.2,1,4,1.7,6.1
			c5.4,16.9,9.3,33.9,9.7,51.8c0.3,13.6-0.6,27-4.3,40c-2.4,8.4-5.7,16.5-10.8,23.8c-0.6,0.8-0.8,2.6-2.3,2.2
			c-0.7-0.2-1.3-1.4-1.6-2.3c-3-9.1-9.2-16.1-15.4-22.8c-13.3-14.3-28.3-26.9-43.7-39c-23.3-18.4-47.5-35.6-72-52.4
			c-29.4-20.2-59.5-39.4-89.7-58.4c-26.7-16.8-53.7-33.1-80.8-49.3c-0.8-0.5-2.2-0.7-1.7-1.9c0.2-0.4,1.8-0.5,2.8-0.4
			c6.4,1,12.5,2.7,18.7,4.6c17.5,5.5,34.4,12.6,51.2,20c21.9,9.6,43.2,20.4,64.4,31.3c24.5,12.7,48.7,26,72.8,39.6
			c18.7,10.6,37.2,21.5,55.9,32.1c6,3.4,11.8,7.2,17.8,10.8C849.7,899.3,851.1,900.3,853,899.9L853,899.9z"/>
		<path fill="#FEFEFE" d="M495.1,662.6c-0.3,0.3-0.5,0.8-0.6,0.7c-0.4-0.1-1-0.3-1.2-0.7c-0.2-0.3,0.1-0.9,0.7-0.7
			C494.4,662,494.7,662.3,495.1,662.6z"/>
		<path fill="#FEFEFE" d="M845.3,889.7c0.7,0.4,1.3,1.2,0.7,1.8c-0.8,1-1.1-0.4-1.6-0.7C844.7,890.4,845,890,845.3,889.7z"/>
		<path fill="#79000C" d="M958,413.1c10.6-5.7,20.1-12.9,29.7-20c17.2-12.6,34-25.6,49.2-40.6c7.6-7.5,14.5-15.6,20.5-24.4
			c1.6-2.3,3.4-3.2,6.2-3.1c11.2,0.2,22.3,0.3,33.5,0c4.2-0.1,5,1.4,4.9,5.2c-0.5,22.7-3.7,44.9-10.4,66.6
			c-3.1,10.2-6.5,20.2-9.7,30.4c-0.3,1.1-1.2,2.1-0.2,3.8c4.4-5.8,8.8-11.4,12.9-17.1c16-21.9,31.5-44.1,44-68.3
			c2.7-5.3,5.1-10.8,7.4-16.4c1-2.4,2.2-3.3,4.8-3.3c13.5,0.1,27,0.2,40.5,0.1c3.5,0,3.3,1.3,2.4,3.8c-6,15.2-13.1,29.9-21.2,44
			c-20.5,35.9-44.3,69.5-68.3,103.1c-1.7,2.3-3.3,3.5-6.2,3.1c-26.4-4-52.8-7.7-79-12.8c-3.5-0.7-3.1-2-2.1-4.3
			c4.9-11.6,9.6-23.3,14.7-34.9c7.7-17.5,14.6-35.3,23.1-52.5c0.2-0.4,0.1-0.9-0.4-2.1c-2,2-4.1,3.9-5.9,6
			c-8,9.5-17.4,17.4-26.8,25.2c-19.2,16.1-39.3,31.2-59.5,46.1c-4,3-7.6,3.6-12.4,2.5c-24.7-5.7-49.4-11.4-74-18
			c-3.4-0.9-3.8-1.4-1.4-4.2c7.9-9.3,17.2-17.1,25.8-25.6c12.3-12.2,25-24,36.3-37.2c10.4-12.1,19.4-25,24.5-40.2
			c1-3.1,2.4-4.2,5.6-4.1c14.5,0.2,29,0.3,43.5,0.1c4,0,3.8,1.5,2.9,4.4c-5.9,19-15.8,35.8-28,51.4c-8.3,10.6-17.1,20.8-26,30.9
			c-0.6,0.6-0.9,1.4-0.9,2.2L958,413.1z"/>
		<path fill="#FEFEFE" d="M1040.4,393.3c0.4-0.5,0.9-1.3,1.4-0.9c0.7,0.6,0.2,1.4-0.5,1.9C1041,394,1040.7,393.7,1040.4,393.3z"/>
		<path fill="#79000C" d="M1554.8,183.9c-0.7,6.8-0.2,13.5,0.5,20.2c0.6,6.1,0.5,12.2,1.5,18.3c1,5.7,1.1,11.7,0.8,17.3
			c-0.9,13.9,0.4,27.9-1.5,41.8c-0.6,4.6-0.2,9.3-0.1,14c0.1,2.9-1.1,4-3.9,3.5c-13-2.3-26.2-3.2-39.3-4.9c-2.2-0.3-2.6-1.1-2.8-3.1
			c-0.5-5.4,1.1-10.6,1-15.9c-0.2-6.8-0.4-13.7,0.1-20.5c0.9-12.3,0.3-24.6,1.1-36.9c0.7-10.3,0.1-20.6,0.9-30.9
			c0.9-11.6,0.1-23.3,1.1-34.9c0.9-11,0.6-21.9,0.8-32.9c0.1-5.6,0.5-5.9,5.9-4.5c13.6,3.5,27,7.9,40.3,12.4c2.2,0.8,3.7,1.8,4.7,4
			c13,31,26.1,62,39,93.1c3.9,9.3,7.4,18.8,11,28.2c0.4,0.9,0.4,2.1,1.7,1.9c0.2,0,0.4-1.5,0.3-2.3c-1.3-12.3-2.9-24.6-3.7-37
			c-0.6-8.6-0.3-17.3-0.1-26c0.2-12.1,0.7-24.3,0.9-36.4c0.1-2.9,0.6-3.9,3.8-2.6c12.2,5.3,24,11.3,35.8,17.4
			c2.3,1.2,2.4,2.8,2.4,4.9c-0.1,18,0.5,36-0.3,54c-1.2,27.8-0.4,55.6-0.8,83.4c-0.1,5.8,0,5.6-5.8,4.6c-12-2.2-24.1-4.2-36.1-6.2
			c-4-0.7-6.7-2.1-8.6-6.1c-17.6-37.9-35.8-75.6-49.3-115.3C1555.6,185.7,1555.2,184.8,1554.8,183.9z"/>
		<path fill="#79000C" d="M1597.8,325.1c29.4-1,58.9-1,88.3-1.2c3.8,0,6.1,1,7.9,4.3c3.7,6.7,8.5,12.7,13.8,18.3
			c0.6,0.6,1.5,1.1,1.3,2c-0.3,1-1.4,0.4-2.1,0.6c-2.9,0.8-5.9,0.7-8.9,0.8c-20.6,0.7-41.2,1.4-61.8,2.1c-2.7,0.1-3.8,0.4-1.9,3.3
			c4.2,6.2,8.9,12,13.4,18c1.3,1.7,2.9,1.9,4.9,1.8c12.8-0.6,25.5-1.7,38.2-2.8c9.1-0.8,18.2-1.2,27.3-2.2c1.5-0.2,2.9-0.1,4.2,1
			c8.3,6.9,17.1,13.2,26.1,19.2c0.8,0.5,2,1,1.7,2.2c-0.1,0.4-1.4,0.5-2.2,0.7c-8.8,1.3-17.7,2.6-26.6,3.8c-14,1.8-28,3.4-41.9,5.2
			c-1.1,0.1-2.6,0.2-2.9,1.4c-0.3,1,1,1.6,1.7,2.3c13.5,13.1,26.9,26.3,40.4,39.4c0.7,0.7,1.5,1.3,2.1,2.1c0.8,1,2.7,1.8,2.3,3
			c-0.5,1.2-2.5,1.3-3.9,1.6c-7.1,1.5-14.2,3.1-21.4,4.6c-13,2.7-25.9,5.6-39,7.8c-2.2,0.4-3.4-0.1-4.6-1.7
			c-20.4-27.3-41.6-53.9-60-82.7c-9.9-15.6-18.6-31.9-24.4-49.5c-1.7-5.1-1.6-5.3,3.9-5.3C1581.8,325.1,1589.8,325.1,1597.8,325.1z"
			/>
		<path fill="#79000C" d="M1489.1,291.6c-15.4-1.2-30.7-2.4-46.1-3.6c-2.5-0.2-2.8-1.6-3.2-3.6c-2.2-10.7-4.6-21.4-6.8-32.1
			c-0.6-2.8-1.6-4.1-4.6-4.8c-5.4-1.2-10.9-0.5-16.4-1.1c-9.7-1.1-19.6-1-29.3-1.5c-2.6-0.1-3.3,1.2-3.9,3.5
			c-2.5,10.7-5.4,21.2-7.6,31.9c-0.8,3.8-2.5,4.6-6.1,4.7c-13.8,0.2-27.6-1.5-41.4-0.9c-3.6,0.2-4.2-1.1-3.2-4.5
			c4.4-14.8,8.5-29.7,12.9-44.4c12.6-42,25.3-83.9,38.5-125.7c1.7-5.4,3.5-10.7,5-16.2c0.8-2.9,2.5-3.4,5.2-3.1
			c12.3,1.4,24.7,2.5,37.1,3.9c5.8,0.6,11.5,1.5,17.2,2.3c2.8,0.4,4,1.8,4.7,4.7c13.2,49.7,26.6,99.3,39.9,149
			c3.4,12.7,6.9,25.3,10.3,37.9C1492.1,290.3,1492.4,292.2,1489.1,291.6z"/>
		<path fill="#79000C" d="M1441,326.1c7,0,14,0.1,21,0c2.6,0,3.7,0.5,4.1,3.4c5,31.8,15.2,62.2,25.8,92.4c2.1,6,4.3,11.9,6.4,17.8
			c0.8,2.3,1.7,3.6,4.5,3.5c11.5-0.4,22.8-1.7,34.2-2.7c8.4-0.8,16.8-1.6,25.3-2.4c7.8-0.8,15.5-1.4,23.2-2.5c2.4-0.3,3.6,0,4.9,2.1
			c6.6,10.9,13.4,21.8,20.2,32.7c1.4,2.3,0.5,2.6-1.7,2.9c-13.1,1.9-26.2,4-39.3,5.9c-14.8,2.1-29.6,4-44.4,5.8
			c-11,1.3-22.1,2.2-33.2,3.3c-13.7,1.3-27.4,2.5-41.1,3.9c-3.3,0.3-3.9-1.3-4.4-3.8c-3.8-17.3-7.7-34.6-11.4-52
			c-4.1-18.8-8.1-37.6-11.4-56.5c-2.7-15.5-5.4-31-6.7-46.7c-0.6-6.8-0.6-6.8,6.6-6.8C1429.3,326.1,1435.1,326.1,1441,326.1
			C1441,326.1,1441,326.1,1441,326.1z"/>
		<path fill="#79000C" d="M1287,498.1c-18.2,0.6-36-2.7-52.7-10.2c-25.4-11.4-41.8-30.3-45.2-58.7c-1.4-11.8,1.2-23.2,5.1-34.2
			c5.7-16,13.5-30.6,25.8-42.8c13.3-13.1,29.2-20.7,47-24.6c27-6,53.5-4.6,78.9,7.1c22,10.1,35,27.9,41.1,51
			c5.6,20.9,5.8,41.3-3.8,61.2c-8.1,16.8-20.7,29.2-36.9,38C1327.9,494.7,1308,498.7,1287,498.1z"/>
		<path fill="#79000C" d="M1216.5,290.1c-18.4,0.2-35.6-3.9-50.7-14.9c-16.4-12-25.3-28.7-29.7-48.1c-2.4-10.7-3.6-21.6-3-32.6
			c1.7-30.7,11.7-57.8,35.6-78.5c13.8-11.9,29.9-19.1,47.9-21.9c16-2.5,31.8-1.8,46.8,5.1c20,9.2,32,25.4,39,45.7
			c4.7,13.6,6.6,27.9,6.3,42.1c-0.4,22.1-4.1,43.6-16.1,62.9c-13.8,22-33.7,34.8-59.2,39.1C1227.7,290,1222.1,290.1,1216.5,290.1z"
			/>
		<path fill="#79000C" d="M996.9,267.6c0-13.8,0.6-27.7-0.2-41.4c-1-17.5-0.2-34.9-0.8-52.4c-0.1-3.5,1-5.6,4-7.1
			c12.2-6.2,24.3-12.3,36.7-17.9c2.4-1.1,3.3-0.4,3.5,2.1c0.1,2.5,0.7,4.9,0.7,7.4c-0.2,25.1,1.3,50.2,1.4,75.3
			c0,10.6,0.5,21.2,0.9,31.8c0.2,5.1,0.8,5.6,5.7,4.7c18.2-3.6,36.4-7.1,54.6-10.7c0.8-0.2,1.6-0.2,2.5-0.3c5.1-0.6,4.6-0.5,5.2,4.7
			c1.1,9.4,0.6,18.9,1.1,28.3c0.2,4.1-1.6,5.5-5.3,5.9c-24.8,2.8-49.5,6.6-74.2,10.9c-10.4,1.8-20.9,3.5-31.2,5.9
			c-3.3,0.8-4.4-0.2-4.4-3.7c0.1-14.5,0.1-29,0.1-43.5C997.1,267.6,997,267.6,996.9,267.6z"/>
		<path fill="#FDFDFD" d="M814.6,184.5c-5.7,20.4-20.5,32.2-39.1,38.5c-12.6,4.3-21,12.1-28.1,22.2c-11.1,15.7-17.4,33.3-20.4,52.1
			c-2.2,14.2-2.5,28.4-1.1,42.7c0.4,3.6,1.2,3.7,4.1,2.4c13.1-6.2,22.5-16.2,29.7-28.4c7.5-12.7,11.9-26.5,14.3-41
			c0.1-0.8-0.2-1.9,0.6-2.2c1.1-0.5,1.8,0.4,2.5,1.1c4.5,4.6,5,10.7,5.4,16.6c0.3,5.6-0.3,11.3-1.2,16.8c-0.2,1.5-1,2.6,1.7,2.8
			c17.5,1.1,33,7.6,47.5,17.1c7.1,4.7,13.7,10,18.3,17.3c2.6,4.1,4.1,8.5,3.4,13.6c-0.4,2.9-1.6,4.2-4.3,5.2
			c-21.3,7.9-41.8,17.4-61.2,29.1c-46.2,27.8-82.9,64.6-107.1,113.2c-6.9,14-12.2,28.6-15.8,43.8c-0.1,0.5-1.1,1.1,0,1.4
			c0.7,0.3,1.1-0.4,1.4-1c3.2-6.1,6.5-12.2,9.8-18.4c2.8-5.4,6.4-10.4,10-15.4c1.3-1.7,2.8-3.4,4.4-4.8c2.2-1.9,4.5-4.7,7.8-2.4
			c3.3,2.3,0.4,5-0.5,7c-10.2,24.7-17,50.4-20.5,76.9c-3,23.4-3.6,47,0.8,71.2c-52-31-98.8-67.7-141.7-110.4
			c0.3,4.2,0.2,7.9,0.8,11.5c1.3,7.1,0.8,14.3,0.9,21.4c0,2.3,0,5.3-2.3,6.1c-2.7,1-3.9-2-5.1-3.8c-5.2-7.9-8.6-16.7-12.4-25.3
			c-4.7-10.6-2.7-9.6-13.9-6.6c-13.7,3.7-26.9,9-40.2,14c-0.9,0.3-2.3,1.1-2.7,0.7c-0.9-0.8-0.6-2.2-0.3-3.3c0.8-2.2,2.2-4,3.9-5.7
			c6.8-7.2,14.9-12.7,23.2-18c1.4-0.9,2.8-1.7,4.2-2.6c0.5-0.3,1.1-0.9,1.1-1.4c0-1-1-0.5-1.5-0.6c-10.3-2.1-20.5-0.5-30.6,1.4
			c-18.3,3.6-35.4,10.4-51.9,19c-3.5,1.8-3.9,1.6-3.4-2.4c0.9-7.9,5.3-14.2,9.9-20.2c5-6.5,10.8-12.2,16.8-17.8
			c2.9-2.8,6.6-4.4,9.9-6.5c1.5-0.9,3-2,2.2-3.9c-0.7-1.8-2.2-2.8-4.3-2.7c-3.5,0.1-6.9,1-10.2,1.7c-28,6-52.7,18.4-74,37.5
			c-0.6,0.5-1.1,1.7-1.9,1c-0.4-0.3-0.4-1.5-0.4-2.3c-0.2-26.4,5.7-50.9,21.2-72.7c4-5.6,9.7-9.6,13.7-15.1c1.5-2,2.9-4,4.3-6.1
			c0.9-1.3,1.5-2.8,0.3-4.1c-1-1.2-2.4-0.7-3.7-0.4c-6.3,1.4-12.4,3.5-18.2,6.2c-20.5,9.5-39.5,21.5-58.4,34.3
			c-0.9-3.6,0.6-6.8,1.1-10.1c0.5-3.3,1.6-6.4,2.5-9.6c5.3-18.3,12.6-35.7,20.7-52.9c13.6-29.1,30.4-56.4,46.2-84.3
			c16.4-29.2,41.8-47.4,70.2-62.6c26-13.9,53.5-24.4,81.9-32.4c8.4-2.4,16.3-6.3,24.9-8.2c3.6-0.8,7.1-1.5,10.8-1.6
			c13.1-0.4,16.3,7.1,12,18.7c-1.7,4.6-4.5,8.8-5.9,13.6c-0.5,1.6-0.7,3.2-0.7,4.9c0,1.2,0.3,2.4,1.6,2.8c1.3,0.4,2.1-0.3,3-1.3
			c4.6-5.6,9.2-11.3,14-16.8c14.9-17,30.2-33.7,49.1-46.5c6-4.1,12.4-7.5,19.9-8.6c6.8-1,8.1-0.1,8.4,6.4
			c0.5,12.5,1.5,24.9,4.3,37.1c0.7,2.9,1.7,5.7,3,8.3c1.1,2.2,2.4,4.8,5.4,4.1c2.8-0.6,4.3-2.9,4.6-5.9c0.6-5.8,1.8-11.4,3.1-17.1
			c3.8-17.1,9.1-33.8,18.7-48.7c8.7-13.4,20.2-23.6,36.4-26.4c13.5-2.3,26.7,0,39.3,5.8c5.3,2.4,10.1,5.5,15,8.7
			c7.9,5.3,16.5,7.4,26,5.1c1.1-0.3,2.2-0.7,3.2-1.2c7.1-3.7,14-0.3,15.4,7.5c4.6,24.6,2.1,48.9-2.6,73.1
			c-3.2,16.9-8,33.4-13.6,49.7c-1,3.1-2.2,4.4-5.5,2.7c-3.1-1.6-7.6-1.8-9.3-4.2c-1.9-2.5,1.3-6.3,2.2-9.5
			c4.1-16.6,5.9-33.6,8.1-50.5c0.9-7-0.1-13.1-3-19.6C817.9,205.5,815.6,195.1,814.6,184.5z"/>
		<path fill="#FDFDFD" d="M275.1,431.2c11.1-0.6,22-1.7,32.8-3.6c2.7-0.5,6.6-1.5,7.8,1.2c1.3,2.9-2.4,4.9-4.6,6.3
			c-11.8,7.9-25,12.6-39,14.9c-13.9,2.2-27.3-1.7-40.9-3.6c-8.8-1.2-17.5-3.2-25.9-6.4c-2.9-1.1-6.9-2.1-6.9-5.5c0-3.5,4-4.4,7-5.4
			c25.4-8.7,49.5-20.3,71.9-35.1c12.1-8,23.4-17.2,36.4-23.9c7.5-3.9,15.2-7.5,23.7-8.2c11.8-1.1,12.4,2.3,9.3,11.6
			c-2.7,8-9.1,13.4-15.5,18.4c-14.4,11.3-30.9,18.9-47.6,26.2c-4.7,2-9.5,3.8-14.2,5.7c-0.8,0.3-1.6,0.5-2.3,0.9
			c-1.4,1.1-3.7,2.1-3.5,3.9c0.1,2.3,2.8,1.8,4.4,2.2C270.3,431.1,272.8,431,275.1,431.2z"/>
		<path fill="#800D18" d="M853,899.9c0.3,0.3,0.5,0.7,0.8,1c-0.2,0.1-0.4,0.2-0.6,0.3C853.1,900.8,853,900.4,853,899.9L853,899.9z"
			/>
		<path fill="#0D0909" d="M958,413.1c-0.3,0.2-0.6,0.5-1,0.7c-0.1-0.2-0.2-0.3-0.4-0.5c0.4-0.1,0.8-0.3,1.2-0.4
			C957.9,412.9,958,413.1,958,413.1z"/>
		<path fill="#0D0909" d="M1408,132c2.3,11,4.6,22,6.9,33.1c2.5,12,5,24,7.5,36c1.2,5.7,0.9,6.3-4.6,6c-8.4-0.5-16.9-1.3-25.3-1.9
			c-3.7-0.3-2.6-2.7-2.1-4.7c2.1-8.5,4.5-17,6.5-25.6c3.1-12.9,6-25.8,9-38.8c0.3-1.4,0.8-2.8,1.2-4.3
			C1407.4,131.9,1407.7,132,1408,132z"/>
		<path fill="#0D0909" d="M1332,400.8c0.7,15.4-3.6,29-15,39.7c-16.4,15.4-48.8,14.7-61.3-6.3c-3.5-5.9-5.3-12.3-5.6-18.9
			c-0.6-15.4,2.4-30.1,11.8-42.9c7.1-9.8,17.1-14.5,28.9-15.3c8.4-0.6,16.7,0.2,24.1,4.7c11.4,6.9,15.7,18,17.1,30.6
			C1332.3,395.1,1332,397.9,1332,400.8z"/>
		<path fill="#0D0909" d="M1183.8,194.3c0-16,1.9-29.3,10-41c8.9-12.8,21.1-18.3,36.6-15.2c8.8,1.8,14.4,7.8,18.6,15.3
			c4.5,8,6.3,16.7,6.9,25.7c1,14.6,0.6,29.2-5,43c-4.4,10.9-11.2,20-23.1,23c-15.1,3.7-27.3-0.2-35.7-14.4
			C1187.1,221.9,1183.5,208.6,1183.8,194.3z"/>
		<path fill="#0D0909" d="M541.4,290.4c-34.6,0.7-66.5,7.4-94.9,26.7c-6.5,4.4-12.5,9.4-18.2,14.7c-1.3,1.2-2.1,3.7-4.7,3.1
			c0.7-1.5,1.5-3,2.2-4.5c9.1-17.8,20.8-33.6,36.2-46.5c19.4-16.1,42-25.1,66.5-29.9c10.6-2.1,21.4-3,32.2-3.7
			c7.4-0.5,10.6,3.4,8.4,10.6c-2.7,9-9,15.8-14.5,23C551,288.6,547.1,292.3,541.4,290.4z"/>
		<path fill="#FDFDFD" d="M1407.7,149.9c2.4,11.9,4.8,23.5,7.2,35.1c1.1,5.2,2.1,10.4,3.4,15.5c0.6,2.2,0,2.5-2,2.3
			c-6.1-0.5-12.2-1.1-18.4-1.3c-3.2-0.1-3.5-1.3-2.8-3.9c3.5-14,6.9-28,10.4-42C1406,153.9,1405.6,151.7,1407.7,149.9z"/>
		<path fill="#FDFDFD" d="M1328.4,395.9c0.3,17.9-3,31-13.8,41.3c-11.5,11-32,13.2-45.6,4.8c-8.5-5.2-13.2-13.2-14.3-22.9
			c-2-18.3,1.1-35.4,14.5-49c13.2-13.4,38.6-12.8,50.5,0.8C1326.8,379.1,1328.2,389.2,1328.4,395.9z"/>
		<path fill="#FDFDFD" d="M1252.4,194.2c-0.5,11.8-2.2,22.1-7.4,31.5c-5.1,9.2-12.2,15.7-23.2,16.8c-11,1.1-19.4-3.2-25.4-12.4
			c-4.8-7.5-7-15.8-7.9-24.4c-1.4-14.5-1.5-28.9,4.5-42.7c4.6-10.6,11.9-18.4,23.6-20.9c12.6-2.8,22.6,1.8,28.9,13.2
			c4.8,8.8,6.4,18.5,6.9,28.3C1252.6,187.5,1253.2,191.4,1252.4,194.2z"/>
		<path fill="#79000C" d="M519.8,280c-10.4-0.4-19.8,2.6-29.3,5.8c-1.3,0.5-3,2-4,0.4c-1.1-1.8,0.9-3,2.1-4
			c9.6-7.8,20.1-13.9,32.1-17.4c8.1-2.3,16.2-3.1,24.6-2.8c0.5,0,1.4-0.4,1.6,0.5c0,0.3-0.6,0.6-0.9,1c-5.3,5-10.6,10-15.9,15.1
			C526.9,281.6,523,279.2,519.8,280z"/>
	</g>
</g>
</svg>
