<?xml version="1.0" encoding="utf-8"?>
<!-- Generator: Adobe Illustrator 24.3.0, SVG Export Plug-In . SVG Version: 6.00 Build 0)  -->
<svg version="1.1" id="Layer_1" xmlns="http://www.w3.org/2000/svg" xmlns:xlink="http://www.w3.org/1999/xlink" x="0px" y="0px"
	 viewBox="0 0 1920 1080" enable-background="new 0 0 1920 1080" xml:space="preserve">
<g>
	<g>
		<ellipse fill="#FEFEFE" cx="960" cy="540" rx="1207.738" ry="671.751"/>
		<path fill="#800D18" d="M845.277,889.731c-3.341-7.903-5.952-16.224-10.19-23.613c-6.63-11.559-14-22.745-21.745-33.598
			c-5.638-7.901-12.273-15.109-18.68-22.437c-4.803-5.493-9.703-10.945-14.989-15.964c-14.866-14.116-30.002-27.956-46.7-39.921
			c-17.012-12.189-33.897-24.59-51.369-36.092c-14.728-9.696-30.024-18.582-45.422-27.194c-17.176-9.607-34.64-18.721-52.195-27.621
			c-11.005-5.579-22.409-10.37-33.634-15.515c-0.332,0.342-0.664,0.684-0.996,1.026c2.518,3.25,4.834,6.684,7.589,9.719
			c14.041,15.46,29.848,28.962,46.436,41.597c4.199,3.198,8.169,6.701,12.195,10.121c1.883,1.599,3.193,3.533,1.959,6.119
			c-1.324,2.774-3.955,3.2-6.424,2.529c-10.006-2.72-20.212-4.996-29.853-8.711c-23.502-9.059-45.428-21.286-66.52-35.019
			c-5.391-3.51-10.853-6.911-16.297-10.34c-0.759-0.478-1.597-0.832-2.399-1.244c-0.253,0.281-0.506,0.561-0.759,0.842
			c1.43,1.602,2.702,3.385,4.315,4.775c8.758,7.546,17.47,15.157,26.449,22.435c10.112,8.195,20.492,16.059,30.753,24.07
			c0.523,0.409,1.036,0.834,1.525,1.282c1.781,1.632,3.391,3.407,2.364,6.06c-1.004,2.592-3.241,2.904-5.736,3.027
			c-14.049,0.694-27.71-1.673-41.127-5.434c-23.505-6.588-44.588-18.011-64.145-32.515c-13.503-10.015-25.736-21.391-37.336-33.481
			c-4.439-4.626-8.515-9.601-13.549-14.29c0.318,1.576,0.506,3.191,0.973,4.722c4.641,15.21,9.865,30.228,17.189,44.367
			c8.352,16.123,17.116,32.035,25.831,47.967c1.456,2.662,1.991,5.14-0.264,7.249c-2.426,2.269-5.15,1.85-7.6-0.362
			c-10.2-9.212-20.976-17.869-30.465-27.762c-11.423-11.909-21.04-25.39-29.275-39.763c-10.475-18.282-19.374-37.28-25.751-57.399
			c-1.395-4.401-2.573-8.87-3.992-13.8c-3.202,2.64-6.518,5.004-9.4,7.813c-13.638,13.295-28.036,25.67-43.184,37.23
			c-12.367,9.438-25.145,18.132-39.01,25.227c-7.298,3.735-15.045,5.835-23.064,7.134c-3.125,0.506-5.639-0.555-7.175-3.348
			c-1.667-3.031,0.277-5.021,2.313-6.878c7.345-6.696,15.073-13.019,21.982-20.137c17.287-17.81,31.222-38.007,41.367-60.727
			c0.79-1.77,1.278-3.675,1.251-6.224c-4.314,2.703-8.619,5.421-12.945,8.106c-28.036,17.397-56.924,33.032-88.731,42.554
			c-14.032,4.201-28.362,6.667-43.039,5.626c-7.559-0.536-15.042-2.011-21.496-6.546c-2.187-1.536-3.665-3.365-3.279-6.236
			c0.376-2.791,2.355-3.607,4.742-4.376c21.8-7.02,41.464-18.109,59.293-32.32c14.735-11.744,26.488-26.239,36.57-42.13
			c10.451-16.472,18.046-34.174,23.247-52.936c0.209-0.753,0.027-1.615,0.027-2.524c-9.532-3.021-19.044-5.748-28.354-9.045
			c-21.23-7.518-42.03-16.074-60.552-29.159c-7.844-5.541-15.289-11.734-19.734-20.633c-2.459-4.923-1.705-7.01,3.226-9.529
			c29.141-14.881,57.47-31.177,85.261-48.447c15.692-9.751,31.425-19.503,47.657-28.3c15.153-8.212,31.747-13.083,48.306-17.779
			c5.236-1.485,10.507-2.86,15.679-4.543c1.388-0.452,2.743-1.644,3.648-2.847c8.716-11.585,16.723-23.77,26.16-34.726
			c8.318-9.658,17.881-18.334,27.493-26.761c8.036-7.045,16.594-13.626,25.523-19.497c24.955-16.408,52.031-28.302,81.535-33.257
			c16.922-2.842,33.822-5.591,50.261-10.399c21.074-6.163,41.915-13.12,62.897-19.605c4.553-1.407,9.351-2.025,13.902-3.438
			c6.451-2.002,12.993-3.931,19.118-6.721c23.519-10.709,45.626-23.978,66.937-38.518c21.366-14.578,42.279-29.824,63.764-44.22
			c3.109-2.083,8.388-1.781,12.519-1.314c9.547,1.078,18.847,3.61,27.437,8.035c18.181,9.366,30.318,24.104,37.773,42.995
			c4.328,10.968,7.431,22.349,8.373,33.967c1.22,15.042,1.809,30.256,0.994,45.305c-0.762,14.077-3.802,28.024-5.618,42.057
			c-0.326,2.517,0.097,5.26,0.749,7.749c1.764,6.734,3.471,13.408,3.217,20.488c-0.251,6.991,0,13.999-0.088,20.998
			c-0.027,2.123-0.446,4.24-0.745,6.891c6.719,8.138,11.532,17.837,13.15,28.864c0.67,4.567,0.355,9.271,0.645,13.903
			c0.944,15.07-2.951,29.178-8.49,42.949c-1.369,3.405-3.546,6.029-6.682,8.335c-10.751,7.906-21.355,16.045-31.618,24.573
			c-8.148,6.77-16.175,13.804-23.438,21.493c-13.055,13.822-24.661,28.803-33.877,45.579c-8.11,14.765-13.864,30.346-16.612,46.89
			c-2.009,12.095-1.917,24.333-0.495,36.603c2.346,20.228,9.551,38.75,19.069,56.466c6.412,11.934,14.045,23.106,23.026,33.305
			c4.919,5.586,9.711,11.292,14.806,16.712c2.937,3.124,6.349,5.804,9.576,8.652c2.507,2.212,3.823,4.839,1.89,7.91
			c-1.84,2.924-4.846,2.61-7.625,1.648c-5.137-1.779-10.412-3.342-15.262-5.738c-17.351-8.571-34.546-17.455-51.807-26.208
			c-0.685-0.347-1.433-0.57-2.151-0.851c-0.265,0.251-0.531,0.503-0.796,0.754c2.351,2.936,4.395,6.199,7.106,8.752
			c12.914,12.161,25.626,24.581,39.139,36.048c15.832,13.435,32.511,25.865,48.632,38.966c6.801,5.528,13.196,11.567,19.625,17.537
			c7.425,6.895,15.016,13.656,21.949,21.027c18.028,19.167,34.086,39.848,47.506,62.579c9.462,16.027,17.144,32.795,23.089,50.386
			c1.319,3.902,2.206,7.95,3.282,11.934c0.086,0.318,0.117,0.659,0.124,0.99c0.059,2.683,0.351,5.529-2.727,6.897
			c-3.137,1.394-5.081-0.716-6.781-2.788c-2.824-3.443-5.423-7.068-8.183-10.564c-9.253-11.721-18.962-23.05-30.786-32.277
			c-6.742-5.261-13.899-9.992-20.913-14.899c-0.905-0.633-2.076-0.886-4.135-1.729c1.403,5.441,2.607,10.095,3.803,14.751
			c2.882,11.224,4.969,22.549,4.762,34.216c-0.128,7.224,0.425,14.487-0.128,21.671c-0.851,11.049-3.075,21.905-7.781,32.041
			c-2.562,5.519-5.401,10.941-8.528,16.159c-2.656,4.431-7.495,4.022-9.542-0.802c-6.952-16.381-19.387-28.184-32.493-39.445
			c-8.769-7.534-17.469-15.164-26.494-22.383c-10.161-8.128-20.4-16.205-31.051-23.667c-24.974-17.496-49.966-34.988-75.417-51.776
			c-24.769-16.338-50.03-31.936-75.237-47.599c-20.173-12.535-40.596-24.666-60.885-37.014c-2.217-1.349-4.085-3.144-3.28-6.096
			c0.812-2.977,3.278-3.836,5.907-3.333c7.265,1.391,14.758,2.286,21.651,4.786c17.234,6.25,34.467,12.65,51.18,20.149
			c22.051,9.894,43.826,20.468,65.314,31.538c22.18,11.426,43.961,23.638,65.753,35.799c21.191,11.825,42.177,24.016,63.246,36.059
			c3.725,2.129,7.416,4.32,11.122,6.482C844.923,890.667,845.691,890.671,845.277,889.731z"/>
		<path fill="#0D0909" d="M1040.409,393.291c-24.981,22.844-52.176,42.892-79.372,62.945c-2.505,1.847-4.952,2.462-7.904,1.742
			c-26.97-6.575-53.956-13.083-80.909-19.726c-5.221-1.287-6.093-4.727-2.189-8.657c11.618-11.693,23.382-23.242,35.067-34.869
			c13.457-13.389,27.249-26.468,38.287-42.068c6.092-8.61,11.254-17.703,14.393-27.802c1.113-3.582,3.018-5.153,6.815-5.099
			c15.491,0.221,30.985,0.208,46.476,0.412c5.831,0.077,7.386,2.217,5.829,7.971c-4.54,16.772-12.873,31.695-22.825,45.766
			c-4.301,6.081-8.943,11.921-13.896,18.49c1.257-0.192,1.939-0.093,2.332-0.385c19.383-14.395,38.844-28.732,55.414-46.442
			c5.893-6.298,11.226-13.157,16.422-20.055c2.467-3.275,5.084-4.707,9.192-4.61c11.491,0.27,22.991,0.137,34.487,0.273
			c2.099,0.025,4.193,0.566,6.159,0.85c2.692,5.153,1.731,10.218,1.498,15.107c-1.099,23.054-5.118,45.596-12.362,67.538
			c-0.308,0.934-0.493,1.91-0.702,2.874c-0.025,0.115,0.165,0.277,0.432,0.692c0.467-0.291,1.091-0.477,1.388-0.895
			c16.621-23.307,33.208-46.638,45.016-72.915c1.227-2.731,2.511-5.452,3.499-8.273c1.015-2.898,2.801-4.373,5.899-4.356
			c14.663,0.08,29.327,0.032,43.987,0.233c5.376,0.074,6.893,2.752,4.87,7.968c-8.998,23.201-20.387,45.252-33.979,66.013
			c-18.581,28.383-38.032,56.197-57.055,84.292c-2.132,3.149-4.761,4.209-8.499,3.601c-26.927-4.382-53.875-8.635-80.805-13.004
			c-5.492-0.891-6.745-3.092-4.523-8.446c7.018-16.908,14.239-33.732,21.337-50.608c2.447-5.818,4.762-11.692,7.137-17.541
			C1041.672,393.382,1041.034,393.342,1040.409,393.291z"/>
		<path fill="#0D0909" d="M1559.968,213.289c0.17,2.533,0.313,5.068,0.528,7.597c0.054,0.635,0.495,1.249,0.497,1.874
			c0.039,8.874,0.021,17.748,0.047,26.622c0.008,2.819,0.214,5.641,0.147,8.457c-0.296,12.404-0.621,24.808-1.01,37.21
			c-0.219,6.99-2.401,8.423-9.322,7.289c-6.503-1.066-13.095-1.599-19.654-2.309c-6.719-0.727-13.464-1.246-20.161-2.129
			c-3.38-0.445-5.144-2.819-5.032-6.243c0.184-5.614,0.549-11.221,0.802-16.833c0.105-2.327,0.123-4.659,0.171-6.989
			c0.335-16.438,0.626-32.878,1.016-49.315c0.255-10.779,0.66-21.555,0.983-32.333c0.343-11.443,0.663-22.886,1.004-34.329
			c0.326-10.938,0.607-21.878,1.041-32.812c0.103-2.606,0.739-5.191,1.273-8.732c1.684-0.139,3.681-0.837,5.336-0.357
			c15.73,4.562,31.436,9.219,47.048,14.167c1.867,0.592,3.77,2.812,4.58,4.732c8.725,20.676,17.175,41.468,25.824,62.175
			c4.765,11.407,9.764,22.715,14.683,34.057c0.093,0.214,0.504,0.289,1.198,0.659c0-1.932,0.001-3.662,0-5.391
			c-0.012-19.751-0.029-39.503-0.031-59.254c0-3.497,0.01-6.996,0.107-10.492c0.159-5.743,2.789-7.499,8.017-4.966
			c12.662,6.133,25.224,12.471,37.826,18.726c0.866,0.43,1.735,0.851,3.171,1.556c0.299,2.301,0.937,4.859,0.917,7.412
			c-0.322,41.952-0.72,83.904-1.12,125.855c-0.044,4.657-0.126,9.317-0.335,13.97c-0.227,5.042-2.162,6.478-7.058,5.61
			c-14.709-2.608-29.422-5.194-44.139-7.759c-2.961-0.516-4.221-2.549-5.379-5.084c-10.936-23.951-22.036-47.827-32.938-71.794
			c-3.144-6.913-5.799-14.048-8.678-21.081C1560.874,213.133,1560.421,213.211,1559.968,213.289z"/>
		<path fill="#0D0909" d="M1639.877,356.201c4.203,5.468,7.814,10.166,11.654,15.163c12.665-0.896,25.431-1.745,38.188-2.719
			c9.451-0.722,18.881-1.798,28.342-2.287c2.42-0.125,5.304,0.832,7.323,2.232c8.607,5.968,16.971,12.289,25.421,18.483
			c0.67,0.491,1.574,0.867,1.938,1.532c0.885,1.616,2.406,3.632,2.005,4.999c-0.421,1.433-2.659,2.993-4.317,3.287
			c-7.202,1.278-14.478,2.143-21.734,3.104c-14.49,1.918-28.986,3.8-44.302,5.804c1.287,1.484,2.103,2.578,3.069,3.516
			c11.83,11.482,23.752,22.871,35.463,34.474c2.099,2.08,4.795,5.104,4.657,7.547c-0.23,4.068-4.962,3.779-8.021,4.432
			c-20.15,4.298-40.361,8.313-60.511,12.61c-3.296,0.703-5.511-0.203-7.355-2.691c-23.372-31.524-48.379-61.891-68.112-95.993
			c-7.351-12.704-13.644-25.901-17.896-39.996c-1.972-6.538-0.501-8.481,6.425-8.553c23.48-0.244,46.961-0.443,70.441-0.708
			c14.984-0.169,29.972-0.296,44.95-0.715c4.341-0.121,6.901,1.299,9.265,5.052c3.971,6.302,8.758,12.09,13.228,18.075
			c0.595,0.796,1.664,1.371,1.952,2.235c0.583,1.747,1.542,3.967,0.919,5.348c-0.606,1.343-2.959,2.576-4.609,2.665
			c-15.778,0.847-31.569,1.431-47.356,2.113C1654.282,355.493,1647.663,355.831,1639.877,356.201z"/>
		<path fill="#0D0909" d="M1428.833,251.408c-15.282-0.875-30.35-1.737-45.916-2.628c-1.99,8.104-3.929,15.943-5.834,23.791
			c-0.824,3.394-1.531,6.816-2.375,10.204c-1.291,5.184-2.445,6.087-8.011,6.068c-4.824-0.016-9.647-0.215-14.471-0.282
			c-9.989-0.138-19.979-0.24-29.968-0.36c-6.111-0.073-7.778-2.192-6.063-8.021c7.279-24.741,14.435-49.52,21.966-74.184
			c11.467-37.556,23.205-75.029,34.834-112.536c2.25-7.256,2.804-7.666,10.194-6.854c18.19,1.999,36.365,4.14,54.567,6.017
			c4.193,0.432,6.044,2.477,7.082,6.351c16.873,62.978,33.836,125.932,50.764,188.896c1.633,6.073-0.421,8.271-6.812,7.746
			c-15.251-1.253-30.508-2.431-45.767-3.581c-4.742-0.358-5.988-1.319-6.996-6.12
			C1433.638,274.537,1431.28,263.151,1428.833,251.408z"/>
		<path fill="#0D0909" d="M1613.757,476.307c-9.365,1.51-19.125,3.319-28.952,4.621c-25.85,3.425-51.71,6.79-77.604,9.85
			c-12.481,1.475-25.052,2.179-37.577,3.293c-6.408,0.57-12.808,1.237-19.203,1.932c-3.767,0.41-6.55-1.296-7.352-4.99
			c-6.387-29.431-13.09-58.8-18.949-88.337c-4.154-20.938-7.154-42.105-10.654-63.172c-0.515-3.099-1.03-6.203-1.395-9.322
			c-0.664-5.671,1.422-7.999,7.211-8.034c14.161-0.085,28.323-0.163,42.484-0.119c2.223,0.007,4.443,0.667,7.224,1.115
			c5.947,40.191,19.581,77.961,33.287,116.138c11.182-0.917,22.102-1.702,32.998-2.733c15.214-1.439,30.519-2.405,45.574-4.862
			c8.415-1.373,12.325,1.78,16.009,8.456c5.358,9.71,11.543,18.963,17.356,28.423
			C1615.577,470.785,1616.437,473.065,1613.757,476.307z"/>
		<path fill="#0D0909" d="M1292.54,502.296c-26.064-0.13-46.476-3.603-65.279-13.518c-25.791-13.599-40.906-34.601-42.201-64.3
			c-0.63-14.445,3.867-27.94,9.43-41.036c15.25-35.904,42.659-55.839,80.957-61.58c19.05-2.855,37.839-1.956,56.364,3.177
			c32.311,8.953,52.095,30.023,59.93,62.526c4.599,19.079,4.784,37.943-2.851,56.347c-10.629,25.622-30.158,41.699-55.731,50.96
			C1318.466,500.194,1303.21,502.528,1292.54,502.296z"/>
		<path fill="#0D0909" d="M1312.574,187.455c-0.354,22.556-4.462,45.437-17.501,65.912c-14.474,22.729-35.536,35.413-61.891,39.601
			c-14.982,2.381-29.886,1.726-44.512-2.459c-26.886-7.693-44.68-25.245-53.295-51.518c-9.563-29.164-8.73-58.508,2.851-86.963
			c13.453-33.055,38.21-53.328,73.068-61.006c19.947-4.393,39.477-3.247,57.779,6.559c21.17,11.343,32.786,29.987,38.948,52.57
			C1311.242,161.951,1312.485,173.994,1312.574,187.455z"/>
		<path fill="#0D0909" d="M1047.336,265.98c21.953-4.099,43.26-8.078,63.636-11.882c3.589,2.241,4.192,4.374,4.209,7.382
			c0.051,9.092,0.651,18.18,1.002,27.271c0.058,1.491-0.044,2.989-0.107,4.483c-0.313,7.437-0.297,7.577-7.605,8.617
			c-19.615,2.791-39.286,5.207-58.863,8.239c-16.171,2.504-32.237,5.692-48.358,8.524c-1.927,0.339-3.912,0.35-6.674,0.58
			c-0.407-2.648-1.061-4.999-1.087-7.358c-0.286-25.149-0.438-50.3-0.696-75.45c-0.223-21.816-0.486-43.632-0.864-65.446
			c-0.052-3.014,0.802-4.967,3.549-6.317c13.432-6.6,26.771-13.392,40.248-19.898c5.228-2.523,8.237-0.647,8.583,5.238
			c0.248,4.227-0.349,8.498-0.238,12.741c0.134,5.095,0.814,10.177,0.91,15.272c0.159,8.41-0.11,16.828,0.086,25.236
			c0.162,6.929,0.869,13.844,1.103,20.773C1046.639,237.868,1046.951,251.758,1047.336,265.98z"/>
		<path d="M853.021,899.985c-2.501-7.303-4.684-14.734-7.566-21.883c-7.091-17.59-17.374-33.381-28.724-48.442
			c-5.761-7.644-12.227-14.775-18.604-21.932c-5.52-6.196-10.954-12.568-17.149-18.045c-14.976-13.241-29.921-26.59-45.725-38.801
			c-16.563-12.797-33.831-24.743-51.316-36.265c-14.74-9.713-30.029-18.648-45.443-27.267
			c-17.335-9.692-34.937-18.941-52.702-27.823c-13.736-6.867-27.904-12.871-41.962-19.297c-1.205,5.171,0.532,9.737,4.797,14.913
			c10.986,13.336,23.486,25.092,36.927,35.886c8.105,6.508,16.236,12.982,24.39,19.427c1.426,1.127,3.027,2.034,4.01,3.678
			c-11.146-0.855-21.314-3.716-31.201-7.737c-23.04-9.371-44.812-21.131-65.609-34.714c-14.043-9.172-27.954-18.546-42.18-28.001
			c0.349,5.425,3.855,9.192,7.101,12.667c7.913,8.469,15.963,16.875,24.6,24.587c9.838,8.785,20.32,16.857,30.625,25.11
			c5.922,4.742,12.056,9.221,18.071,13.848c0.473,0.364,0.761,0.966,2.009,2.605c-8.636-0.606-16.293-0.344-23.59-1.841
			c-11.086-2.274-22.123-5.186-32.82-8.874c-17.783-6.131-33.695-15.915-48.792-27.064c-12.706-9.383-24.594-19.721-35.205-31.383
			c-8.102-8.905-15.466-18.481-23.17-27.749c-0.607-0.731-1.307-1.385-1.964-2.074c-0.36,0.111-0.72,0.223-1.079,0.334
			c0.771,4.216,1.307,8.491,2.354,12.638c4.661,18.453,11.355,36.158,19.297,53.463c8.021,17.476,17.224,34.265,27.337,50.587
			c0.124,0.201-0.078,0.604-0.262,1.737c-24.249-17.594-43.326-39.205-58.599-64.417c-15.185-25.068-26.278-51.776-33.117-80.566
			c-5.011,4.489-9.948,8.625-14.561,13.095c-20.596,19.956-42.526,38.26-66.78,53.623c-9.208,5.833-18.776,11.171-29.597,13.556
			c-3.018,0.665-6.153,0.803-9.52,0.535c32.808-28.056,59.026-60.279,72.359-103.107c-2.108,1.042-3.241,1.447-4.204,2.101
			c-21.639,14.695-44.014,28.136-67.595,39.497c-17.147,8.261-34.864,15.123-53.495,19.072c-12.619,2.675-25.498,4.012-38.277,0.351
			c-4.05-1.16-8.099-2.434-11.434-6.301c44.167-14.749,78.956-40.864,102.787-80.713c14.331-23.964,22.207-48.694,22.104-57.144
			c-4.676-1.53-9.536-2.987-14.301-4.705c-14.729-5.309-29.458-10.621-44.118-16.117c-11.837-4.438-22.724-10.773-32.984-18.054
			c-7.811-5.543-15.347-11.591-19.15-21.262c6.184-3.322,12.335-6.468,18.336-9.88c20.541-11.679,41.119-23.299,61.512-35.233
			c18.81-11.007,37.101-22.935,56.186-33.429c14.623-8.04,30.826-12.555,46.851-17.182c6.481-1.871,12.988-3.649,18.21-5.113
			c9.611-12.572,18.246-24.661,27.709-36.063c15.315-18.452,33.035-34.339,53.206-47.439c24.918-16.183,51.747-28.062,81.032-33.019
			c17.065-2.889,34.028-5.942,50.721-10.417c10.815-2.899,21.537-6.167,32.229-9.5c13.217-4.12,26.13-9.53,39.591-12.478
			c18.64-4.082,35.069-12.699,51.199-22.04c16.991-9.84,33.724-20.181,50.087-31.032c17.589-11.664,34.775-23.959,51.766-36.481
			c3.815-2.811,7.485-2.78,11.209-2.302c19.905,2.554,37.218,10.485,50.051,26.371c9.517,11.782,14.693,25.692,18.122,40.304
			c4.473,19.063,5.005,38.503,3.747,57.822c-1.001,15.373-4.264,30.595-6.423,45.899c-0.194,1.378,0.074,2.969,0.593,4.276
			c5.71,14.374,4.386,29.452,3.75,44.275c-0.208,4.847,0.204,8.376,3.012,12.168c7.326,9.892,10.129,21.138,10.474,33.444
			c0.431,15.378-2.641,29.894-8.555,43.89c-1.079,2.554-3.26,4.904-5.471,6.675c-10.297,8.249-20.991,16.011-31.136,24.438
			c-8.151,6.77-16.119,13.858-23.459,21.486c-13.668,14.204-25.673,29.713-35.251,47.08c-8.291,15.033-13.899,30.94-17.082,47.726
			c-0.826,4.358-0.97,8.869-1.147,13.321c-0.188,4.719,0.032,9.452-0.056,14.176c-0.277,14.935,3.369,29.176,8.388,42.994
			c5.546,15.268,12.857,29.798,22.464,42.96c6.219,8.519,12.948,16.697,19.879,24.653c4.979,5.715,10.676,10.804,16.033,16.191
			c1.134,1.14,2.182,2.366,3.933,4.275c-5.084,0.289-8.8-1.111-12.351-2.837c-16.52-8.028-33.039-16.062-49.462-24.285
			c-7.241-3.626-14.25-7.715-21.376-11.573c-0.974-0.527-2.017-0.929-3.028-1.389c-0.31,0.213-0.62,0.425-0.929,0.638
			c1.503,2.819,2.733,5.829,4.554,8.424c9.591,13.661,21.416,25.246,33.981,36.134c6.13,5.312,12.008,10.922,18.246,16.1
			c11.051,9.172,22.288,18.12,33.451,27.157c8.08,6.541,16.408,12.801,24.19,19.678c10.192,9.006,20.402,18.067,29.809,27.868
			c18.466,19.24,34.655,40.279,48.251,63.323c9.287,15.742,16.801,32.21,22.567,49.502c1.497,4.489,2.475,9.15,3.692,13.732
			c-0.331,0.195-0.663,0.39-0.994,0.585c-1.468-1.727-3.057-3.365-4.384-5.194c-9.778-13.47-20.956-25.719-33.156-36.97
			c-10.493-9.677-22.068-17.916-35.68-22.837c-0.731-0.264-1.525-0.353-2.781-0.633c1.766,5.841,3.372,11.249,5.036,16.639
			c4.206,13.631,6.414,27.51,6.833,41.833c0.393,13.431-0.475,26.592-4.185,39.485c-2.778,9.652-6.509,18.912-13.02,27.251
			c-2.048-3.789-3.638-7.381-5.802-10.584c-3.408-5.042-6.635-10.406-10.946-14.599c-10.804-10.509-21.918-20.734-33.364-30.539
			c-26.23-22.467-54.424-42.336-83.125-61.477c-24.168-16.118-48.312-32.287-72.824-47.87
			c-25.771-16.383-51.962-32.103-77.98-48.096c-7.125-4.379-14.288-8.697-21.308-13.444c5.308-0.865,10.162,0.954,15.085,2.271
			c20.331,5.437,39.716,13.427,58.693,22.36c22.184,10.443,44.332,20.992,66.154,32.162c20.318,10.4,40.32,21.443,60.219,32.631
			c20.732,11.657,41.185,23.812,61.742,35.781c7.422,4.321,14.766,8.776,22.21,13.058c1.234,0.71,2.801,0.839,4.214,1.236
			C852.938,900.053,853.021,899.985,853.021,899.985z"/>
		<path fill="#FEFEFE" d="M494.538,663.424c-0.487-0.274-0.974-0.548-1.46-0.823c0.106-0.249,0.213-0.498,0.319-0.747
			c0.55,0.193,1.101,0.387,1.651,0.58C494.878,662.765,494.708,663.095,494.538,663.424z"/>
		<path fill="#FEFEFE" d="M845.277,889.731c0.362,0.565,0.724,1.13,1.086,1.695c-0.175,0.173-0.35,0.346-0.526,0.52
			c-0.484-0.366-0.968-0.732-1.453-1.098C844.683,890.476,844.98,890.103,845.277,889.731z"/>
		<path fill="#79000C" d="M958.04,413.051c7.621-5,15.407-9.767,22.83-15.045c20.063-14.266,39.78-29.033,57.052-46.664
			c7.881-8.045,14.807-17.024,22.639-26.129c12.911,0,26.707,0,41.232,0c1.057,36.711-8.905,71.08-20.57,105.252
			c13.33-16.024,25.4-32.788,36.785-50.049c11.358-17.22,21.754-34.976,29.317-54.283c15.822,0,31.28,0,47.611,0
			c-2.343,5.698-4.394,11.038-6.709,16.261c-12.516,28.239-28.774,54.342-46.066,79.815c-12.603,18.565-25.597,36.865-38.434,55.271
			c-0.565,0.81-1.305,1.496-2.661,3.028c-27.924-4.433-56.328-8.941-85.782-13.617c12.937-31.761,26.196-62.415,39.231-93.371
			c-0.582,0.425-1.258,0.765-1.731,1.288c-23.12,25.57-50.825,45.741-78.14,66.369c-4.907,3.706-9.997,7.178-14.802,11.009
			c-2.352,1.875-4.803,2.295-7.469,1.652c-26.265-6.34-52.516-12.739-78.763-19.149c-0.435-0.106-0.785-0.56-2.017-1.481
			c7.041-7.041,13.935-13.926,20.819-20.821c13.401-13.422,26.866-26.783,40.172-40.299c8.916-9.056,16.433-19.221,22.287-30.509
			c2.888-5.569,5.181-11.447,7.814-17.344c16.848,0,33.78,0,51.089,0c-2.881,11.924-7.646,22.653-13.549,32.883
			c-9.944,17.233-22.853,32.229-35.861,47.149c-2.355,2.701-4.307,5.754-6.444,8.645C957.917,412.91,958.04,413.051,958.04,413.051z
			"/>
		<path fill="#FEFEFE" d="M1040.409,393.291c0.419-0.388,0.839-0.777,1.258-1.165c0.184,0.123,0.369,0.246,0.553,0.369
			c-0.299,0.605-0.597,1.209-0.896,1.814C1041.019,393.97,1040.714,393.631,1040.409,393.291z"/>
		<path fill="#79000C" d="M1655.626,315.2c-16.036-2.875-31.697-5.683-47.922-8.593c-18.931-40.264-38.645-80.393-52.553-123.068
			c-0.346,0.102-0.693,0.203-1.039,0.305c0.313,6.5,0.489,13.01,0.979,19.497c0.435,5.754,1.414,11.469,1.802,17.225
			c0.524,7.772,1.009,15.568,0.972,23.351c-0.051,10.953-0.515,21.907-0.96,32.854c-0.289,7.107-0.859,14.202-1.356,22.162
			c-14.886-1.735-29.84-3.478-45.499-5.304c0-3.318-0.117-6.594,0.027-9.859c0.22-4.962,0.792-9.912,0.914-14.874
			c0.416-16.955,0.656-33.913,1.05-50.869c0.247-10.626,0.658-21.247,0.979-31.871c0.346-11.457,0.665-22.914,1.008-34.37
			c0.323-10.791,0.638-21.581,1.017-32.37c0.067-1.916,0.434-3.82,0.766-6.593c12.192,3.704,23.525,7.879,35.209,10.481
			c10.756,2.396,15.827,8.683,19.684,18.595c9.434,24.239,20.232,47.942,30.22,71.97c5.34,12.845,10.134,25.917,15.19,38.881
			c0.223,0.573,0.597,1.087,1.773,1.498c-0.335-4.579-0.563-9.17-1.035-13.735c-0.475-4.595-1.605-9.154-1.734-13.748
			c-0.49-17.451-0.873-34.91-0.92-52.366c-0.022-8.271,0.807-16.545,1.302-25.786c14.44,5.731,27.812,12.782,41.608,20.071
			C1656.616,217.247,1656.125,265.813,1655.626,315.2z"/>
		<path fill="#79000C" d="M1751.438,392.974c-25.646,3.378-50.297,6.626-76.239,10.043c16.748,16.264,32.579,31.639,49.258,47.837
			c-23.239,4.873-45.501,9.541-68.039,14.267c-4.785-6.241-9.564-12.174-14.021-18.341c-16.062-22.227-32.315-44.326-47.905-66.881
			c-10.33-14.945-18.329-31.246-24.224-48.5c-0.481-1.409-0.854-2.86-1.177-4.314c-0.098-0.444,0.141-0.963,0.296-1.846
			c40.553-0.495,81.123-0.99,121.094-1.478c6.447,8.675,12.46,16.764,18.994,25.555c-25.426,1.033-50.662,2.058-76.948,3.125
			c4.033,5.615,8.067,10.422,11.179,15.766c4.062,6.977,10.097,7.535,17.008,6.744c6.255-0.716,12.526-1.303,18.8-1.826
			c12.561-1.046,25.123-2.078,37.698-2.93c1.833-0.124,4.096,0.269,5.546,1.292c8.686,6.129,17.196,12.507,25.75,18.823
			C1749.262,390.867,1749.906,391.572,1751.438,392.974z"/>
		<path fill="#79000C" d="M1379.884,244.659c-3.369,13.755-6.586,26.885-9.91,40.457c-16.897-0.44-33.285-0.866-50.618-1.317
			c18.717-65.152,38.301-129.373,58.976-194.054c20.713,2.296,41.216,4.569,61.798,6.85
			c17.562,65.341,34.897,129.835,52.476,195.236c-17.765-1.399-34.653-2.729-52.078-4.101c-2.819-13.188-5.61-26.248-8.563-40.062
			C1414.575,246.663,1397.421,245.672,1379.884,244.659z"/>
		<path fill="#79000C" d="M1416.098,326.31c16.75,0,32.987,0,49.435,0c6.301,40.404,20.262,78.37,34.118,116.968
			c29.782-1.462,59.196-5.08,89.406-8.065c7.419,12.084,15.028,24.478,22.707,36.984c-21.62,5.944-146.353,19.432-164.447,19.477
			C1435.658,436.982,1421.652,382.638,1416.098,326.31z"/>
		<path fill="#79000C" d="M1287.532,498.79c-18.467-0.169-36.202-3.43-52.972-10.885c-22.661-10.074-38.614-26.29-44.124-51.215
			c-2.214-10.016-2.042-20.096,0.498-30.104c3.919-15.441,9.664-30.11,19.146-43.012c13.647-18.568,31.924-30.254,54.344-35.52
			c11.686-2.745,23.528-4.516,35.517-3.906c18.729,0.953,36.894,4.256,53.288,14.288c17.556,10.743,28.185,26.498,33.59,45.96
			c2.799,10.079,4.599,20.386,4.168,30.964c-0.797,19.546-7.754,36.629-20.946,50.965c-15.448,16.787-34.943,26.202-57.319,29.684
			C1304.383,497.308,1295.932,497.885,1287.532,498.79z"/>
		<path fill="#79000C" d="M1218.722,290.168c-21.785-0.049-39.602-4.505-55.107-16.699c-13.951-10.972-22.03-25.529-26.531-42.3
			c-3.378-12.589-4.826-25.497-3.916-38.491c2.083-29.746,11.901-56.109,34.95-76.281c13.859-12.129,30.06-19.434,48.188-22.337
			c12.237-1.96,24.48-2.029,36.56,1.334c19.892,5.538,34.251,17.883,43.75,35.979c7.211,13.738,10.319,28.549,11.533,43.974
			c1.277,16.23-0.102,32.132-4.235,47.775c-6.541,24.755-20.226,44.318-42.991,56.799
			C1250.917,285.406,1234.455,290.811,1218.722,290.168z"/>
		<path fill="#79000C" d="M996.061,168.485c14.266-7.026,28.492-14.033,43.588-21.467c0.501,5.059,1.118,8.93,1.22,12.814
			c0.211,7.992,0.087,15.992,0.211,23.987c0.263,16.966,0.533,33.932,0.926,50.895c0.23,9.951,0.651,19.9,1.103,29.844
			c0.095,2.087,0.703,4.151,1.081,6.262c22.343-4.335,44.234-8.582,66.881-12.977c0.44,13.174,0.859,25.715,1.287,38.525
			c-38.52,6.108-76.475,12.126-115.036,18.24c-0.065-1.467-0.191-3.049-0.196-4.631c-0.073-23.156-0.039-46.314-0.217-69.469
			c-0.171-22.294-0.557-44.586-0.844-66.879C996.046,172.305,996.061,170.98,996.061,168.485z"/>
		<path fill="#FDFDFD" d="M671.421,190.551c0.158,3.406,0.286,6.527,0.451,9.646c0.649,12.267,1.54,24.513,5.101,36.357
			c1.129,3.757,2.221,7.737,6.545,9.371c3.69-1.044,4.99-3.544,5.584-7.274c3.628-22.777,9.042-45.031,21.72-64.756
			c8.661-13.474,20.181-23.57,36.41-26.333c13.546-2.306,26.82-0.155,39.233,5.907c5.025,2.454,9.812,5.438,14.544,8.438
			c8.184,5.189,16.841,7.596,26.467,5.22c1.107-0.273,2.203-0.711,3.213-1.244c7.101-3.74,13.87-0.294,15.338,7.637
			c3.512,18.981,2.646,37.908,0.044,56.917c-3.18,23.235-9.184,45.713-17.025,67.752c-0.209,0.587-0.537,1.132-0.953,1.995
			c-4.752-1.815-9.323-3.56-13.933-5.321c5.781-16.725,7.996-33.768,9.942-50.864c0.543-4.771,1.444-9.525,1.619-14.307
			c0.11-3.004-0.236-6.296-1.395-9.028c-4.952-11.673-8.523-23.653-9.723-36.473c-3.018,10.87-8.928,19.824-17.674,26.812
			c-7.825,6.252-16.471,11.249-26.136,13.841c-7.038,1.887-11.981,6.203-16.446,11.369c-15.48,17.911-24.369,38.804-27.43,62.18
			c-0.967,7.383-1.658,14.841-1.815,22.279c-0.157,7.443,0.512,14.903,0.849,23.08c1.89-0.707,3.263-1.107,4.537-1.714
			c13.047-6.213,22.373-16.309,29.529-28.59c7.738-13.28,12.095-27.747,14.525-43.25c5.133,2.684,6.553,7.209,7.364,11.952
			c1.388,8.112,0.703,16.198-0.779,24.241c-0.082,0.446,0.042,0.93,0.054,1.119c23.37,2.532,43.907,11.142,61.134,26.997
			c4.997,4.599,9.34,10.016,9.852,17.333c0.179,2.559,0.029,5.141,0.029,7.552c-9.161,3.771-17.783,6.748-25.882,10.777
			c-15.507,7.715-31.254,15.163-45.943,24.267c-34.991,21.689-64.288,49.563-86.678,84.332
			c-13.058,20.278-23.163,41.903-28.947,65.423c-0.374,1.521-0.937,2.996-1.411,4.493c0.28,0.188,0.56,0.376,0.84,0.563
			c0.643-1.066,1.298-2.125,1.927-3.2c6.002-10.246,11.837-20.596,18.097-30.681c1.88-3.028,4.73-5.582,7.529-7.871
			c2.192-1.792,4.898-2.302,6.857,1.469c-19.934,48.811-29.755,99.415-21.869,153.002c-51.72-30.937-98.561-67.591-141.09-109.993
			c0.466,10.724,1.029,21.194,1.295,31.672c0.063,2.466-0.878,4.958-1.357,7.439c-0.564,0.173-1.129,0.347-1.693,0.52
			c-1.821-2.14-4.124-4.033-5.375-6.466c-4.003-7.786-7.634-15.764-11.37-23.687c-1.261-2.675-2.408-5.404-3.782-8.502
			c-9.445,0.61-17.924,4.37-26.586,7.15c-8.803,2.825-17.362,6.411-26.31,9.77c-1.411-3.76,0.623-6.576,3.019-8.564
			c7.773-6.449,15.816-12.574,23.81-18.754c1.761-1.362,3.745-2.435,6.324-4.09c-16.308-2.986-31.247-0.508-45.705,4.246
			c-14.371,4.726-28.359,10.616-42.787,16.098c-0.762-4.314,0.95-8.98,3.435-13.076c8.077-13.31,17.899-25.081,31.554-33.14
			c0.57-0.336,1.255-0.65,1.598-1.165c0.838-1.257,2.437-3.281,2.057-3.819c-0.898-1.277-2.923-2.802-4.219-2.586
			c-7.49,1.248-15.025,2.535-22.315,4.616c-23.947,6.835-45.041,18.918-64.221,36.389c0-4.273-0.161-7.813,0.026-11.335
			c1.186-22.235,6.462-43.313,19.301-61.805c4.704-6.775,10.951-12.464,16.283-18.825c2.223-2.652,5.062-5.285,3.953-10.522
			c-4.138,1.028-8.146,1.698-11.925,3.02c-15.074,5.272-28.861,13.163-42.411,21.461c-8.728,5.345-17.297,10.948-27.099,17.174
			c1.711-7.325,2.972-13.846,4.772-20.214c5.172-18.294,12.579-35.728,20.64-52.915c13.641-29.087,29.973-56.664,46.222-84.331
			c7.77-13.231,16.865-25.016,28.371-34.958c12.715-10.988,26.865-19.907,41.74-27.684c26.163-13.679,53.508-24.329,81.932-32.314
			c8.404-2.361,16.533-5.694,24.916-8.142c3.771-1.101,7.857-1.561,11.8-1.556c11.906,0.014,14.229,6.08,11.758,16.314
			c-0.684,2.833-2.445,5.397-3.618,8.124c-1.238,2.877-2.654,5.725-3.443,8.73c-0.586,2.232-1.532,4.934,1.809,7.235
			c1.387-1.35,2.915-2.688,4.273-4.18c13.204-14.499,26.14-29.251,39.652-43.456c8.011-8.421,17.262-15.575,27.543-21.153
			C656.037,191.145,662.812,188.008,671.421,190.551z"/>
		<path fill="#FDFDFD" d="M316.604,427.854c-2.258,5.58-5.98,7.874-9.675,9.924c-12.857,7.13-26.531,12.078-41.296,12.814
			c-6.208,0.309-12.576-0.604-18.735-1.72c-13.156-2.384-26.257-5.106-39.303-8.036c-3.747-0.842-7.749-2.088-10.146-7.183
			c2.393-1.492,4.616-3.515,7.226-4.408c25.436-8.707,49.41-20.409,71.944-35.014c10.521-6.819,20.508-14.476,31.145-21.1
			c9.128-5.685,18.886-10.409,29.843-11.483c3.157-0.309,6.416,0.418,9.754,0.681c1.59,8.544-1.599,14.664-6.45,20.142
			c-9.503,10.732-21.477,18.181-34.157,24.367c-12.13,5.918-24.693,10.945-37.005,16.498c-2.456,1.108-4.636,2.827-6.943,4.264
			c0.051,0.558,0.101,1.117,0.152,1.675c2.388,0.572,4.79,1.683,7.16,1.618c7.952-0.219,15.906-0.705,23.834-1.391
			c5.095-0.441,10.13-1.55,15.221-2.084C311.364,427.186,313.63,427.653,316.604,427.854z"/>
		<path fill="#800D18" d="M853.021,899.985c0.29,0.384,0.58,0.769,0.87,1.153c-0.211,0.1-0.422,0.201-0.633,0.301
			c-0.107-0.462-0.214-0.924-0.32-1.385L853.021,899.985z"/>
		<path fill="#0D0909" d="M958.04,413.051c-0.377,0.283-0.753,0.566-1.13,0.85c-0.103-0.195-0.206-0.389-0.309-0.584
			c0.439-0.136,0.878-0.271,1.317-0.407C957.917,412.91,958.04,413.051,958.04,413.051z"/>
		<path fill="#0D0909" d="M1389.702,204.746c5.908-24.714,11.665-48.795,17.422-72.877c0.311-0.034,0.622-0.068,0.933-0.101
			c5.111,24.851,10.222,49.703,15.52,75.464C1411.84,206.37,1401.188,205.589,1389.702,204.746z"/>
		<path fill="#0D0909" d="M1332.035,399.693c0.711,13.143-2.084,24.693-9.745,34.852c-9.984,13.239-23.653,17.814-39.56,16.105
			c-13.317-1.431-23.46-8.081-29.063-20.591c-3.397-7.585-4.672-15.777-3.433-23.895c1.217-7.97,3.118-15.97,5.863-23.543
			c5.833-16.09,20.264-25.511,37.315-25.734c10.925-0.143,20.809,2.122,28.487,10.492c6.454,7.035,9.2,15.642,10.096,24.929
			C1332.251,394.949,1332.035,397.635,1332.035,399.693z"/>
		<path fill="#0D0909" d="M1183.879,194.699c-0.071-16.207,1.842-29.775,10.089-41.578c8.786-12.573,20.812-18.092,36.163-15.158
			c9.057,1.731,14.66,7.934,19.055,15.491c4.004,6.884,5.872,14.53,6.619,22.278c1.208,12.538,1.248,25.141-1.833,37.502
			c-2.324,9.323-6.233,17.797-13.283,24.672c-12.81,12.49-38.038,11.95-48.319-6.961
			C1187.447,221.891,1183.51,208.757,1183.879,194.699z"/>
		<path fill="#0D0909" d="M423.66,335.231c7.176-15.094,15.777-28.911,27.15-40.899c20.032-21.118,44.803-33.561,72.987-39.222
			c12.343-2.479,24.994-3.531,37.548-4.81c6.62-0.674,9.818,3.303,7.895,9.658c-1.228,4.059-3.048,8.129-5.46,11.598
			c-4.539,6.532-9.697,12.633-14.535,18.833c-23.572-0.239-46.244,2.151-68.27,9.542C459.134,307.26,440.331,319.418,423.66,335.231
			z"/>
		<path fill="#FDFDFD" d="M1394.491,201.172c4.286-17.561,8.39-34.372,12.493-51.183c0.252,0.035,0.503,0.07,0.755,0.104
			c3.642,17.494,7.283,34.988,10.994,52.813C1410.753,202.335,1402.868,201.771,1394.491,201.172z"/>
		<path fill="#FDFDFD" d="M1328.507,398.762c0.32,11.954-1.937,23.164-9.066,33.093c-10.973,15.283-34.678,20.118-50.6,10.064
			c-9.469-5.98-13.756-15.183-14.602-25.992c-1.01-12.909,1.566-25.192,7.769-36.612c10.623-19.557,32.871-21.837,47.619-15.765
			c11.914,4.906,16.507,15.28,18.269,27.246C1328.283,393.425,1328.313,396.105,1328.507,398.762z"/>
		<path fill="#FDFDFD" d="M1252.465,183.963c0.381,11.849-0.18,23.591-4.349,34.874c-2.213,5.988-5.286,11.413-9.957,15.921
			c-12.542,12.104-31.864,10.099-41.457-4.465c-4.963-7.534-7.269-16.019-8.154-24.878c-1.45-14.52-1.439-28.95,4.548-42.67
			c4.624-10.595,11.912-18.348,23.66-20.912c12.613-2.753,22.631,1.859,28.828,13.274
			C1250.461,164.091,1252.033,173.894,1252.465,183.963z"/>
		<path fill="#79000C" d="M545.98,262.588c-5.772,5.742-11.195,11.253-16.797,16.576c-0.795,0.755-2.481,0.891-3.721,0.81
			c-12.654-0.828-24.685,1.748-36.364,6.405c-0.596,0.238-1.273,0.324-1.919,0.361c-0.254,0.014-0.527-0.3-0.791-0.465
			C493.341,273.309,526.246,259.062,545.98,262.588z"/>
	</g>
</g>
</svg>
